HIERARCHY
ROOT Hips
{
	OFFSET 0.000000 0.000000 0.000000
	CHANNELS 6 Xposition Yposition Zposition Xrotation Yrotation Zrotation
	JOINT LeftUpLeg_virtual
	{
		OFFSET 0.000000 0.000000 0.000000
		CHANNELS 3 Xrotation Yrotation Zrotation
		JOINT LeftUpLeg
		{
			OFFSET 15.427100 -6.655098 0.678600
			CHANNELS 3 Xrotation Yrotation Zrotation
			JOINT LeftLeg
			{
				OFFSET 4.081073 -39.591068 13.024000
				CHANNELS 3 Xrotation Yrotation Zrotation
				JOINT LeftFoot
				{
					OFFSET -4.081074 -37.707932 -15.979700
					CHANNELS 3 Xrotation Yrotation Zrotation
					JOINT LeftToeBase
					{
						OFFSET 5.346399 -15.068900 20.645000
						CHANNELS 3 Xrotation Yrotation Zrotation
						JOINT LeftToe_End
						{
							OFFSET 2.754700 0.931300 11.300900
							CHANNELS 3 Xrotation Yrotation Zrotation
							End Site
							{
								OFFSET 0 0 0
							}
						}
					}
				}
			}
		}
	}
	JOINT RightUpLeg_virtual
	{
		OFFSET 0.000000 0.000000 0.000000
		CHANNELS 3 Xrotation Yrotation Zrotation
		JOINT RightUpLeg
		{
			OFFSET -15.569500 -6.655098 0.678600
			CHANNELS 3 Xrotation Yrotation Zrotation
			JOINT RightLeg
			{
				OFFSET -4.081825 -39.591045 13.023800
				CHANNELS 3 Xrotation Yrotation Zrotation
				JOINT RightFoot
				{
					OFFSET 4.081824 -37.707954 -15.979600
					CHANNELS 3 Xrotation Yrotation Zrotation
					JOINT RightToeBase
					{
						OFFSET -5.346400 -15.068900 20.645000
						CHANNELS 3 Xrotation Yrotation Zrotation
						JOINT RightToe_End
						{
							OFFSET -2.754700 0.931300 11.300900
							CHANNELS 3 Xrotation Yrotation Zrotation
							End Site
							{
								OFFSET 0 0 0
							}
						}
					}
				}
			}
		}
	}
	JOINT Spine_virtual
	{
		OFFSET 0.000000 0.000000 0.000000
		CHANNELS 3 Xrotation Yrotation Zrotation
		JOINT Spine
		{
			OFFSET -0.279200 12.230698 -2.892100
			CHANNELS 3 Xrotation Yrotation Zrotation
			JOINT Spine1
			{
				OFFSET -0.232667 10.192268 -1.242267
				CHANNELS 3 Xrotation Yrotation Zrotation
				JOINT Spine1_split
				{
					OFFSET -0.232667 10.192268 -1.242267
					CHANNELS 3 Xrotation Yrotation Zrotation
					JOINT Spine2
					{
						OFFSET -0.232667 10.192268 -1.242267
						CHANNELS 3 Xrotation Yrotation Zrotation
						JOINT Neck_virtual
						{
							OFFSET 0.000000 0.000000 0.000000
							CHANNELS 3 Xrotation Yrotation Zrotation
							JOINT Neck
							{
								OFFSET -0.418800 17.814194 8.416900
								CHANNELS 3 Xrotation Yrotation Zrotation
								JOINT Head
								{
									OFFSET 0.000000 7.031097 3.806800
									CHANNELS 3 Xrotation Yrotation Zrotation
									JOINT HeadTop_End
									{
										OFFSET 0.000000 24.646606 12.978600
										CHANNELS 3 Xrotation Yrotation Zrotation
										End Site
										{
											OFFSET 0 0 0
										}
									}
								}
							}
						}
						JOINT LeftShoulder_virtual
						{
							OFFSET 0.000000 0.000000 0.000000
							CHANNELS 3 Xrotation Yrotation Zrotation
							JOINT LeftShoulder
							{
								OFFSET 8.476499 7.247704 -3.868750
								CHANNELS 3 Xrotation Yrotation Zrotation
								JOINT LeftShoulder_split
								{
									OFFSET 8.476499 7.247704 -3.868750
									CHANNELS 3 Xrotation Yrotation Zrotation
									JOINT LeftArm
									{
										OFFSET 9.308998 -2.777710 0.208600
										CHANNELS 3 Xrotation Yrotation Zrotation
										JOINT LeftForeArm
										{
											OFFSET 29.972298 0.000000 0.000000
											CHANNELS 3 Xrotation Yrotation Zrotation
											JOINT LeftHand
											{
												OFFSET 26.026505 0.000000 0.000000
												CHANNELS 3 Xrotation Yrotation Zrotation
												End Site
												{
													OFFSET 0 0 0
												}
											}
										}
									}
								}
							}
						}
						JOINT RightShoulder_virtual
						{
							OFFSET 0.000000 0.000000 0.000000
							CHANNELS 3 Xrotation Yrotation Zrotation
							JOINT RightShoulder
							{
								OFFSET -7.570500 7.247704 -3.868750
								CHANNELS 3 Xrotation Yrotation Zrotation
								JOINT RightShoulder_split
								{
									OFFSET -7.570500 7.247704 -3.868750
									CHANNELS 3 Xrotation Yrotation Zrotation
									JOINT RightArm
									{
										OFFSET -9.308998 -2.777710 0.208500
										CHANNELS 3 Xrotation Yrotation Zrotation
										JOINT RightForeArm
										{
											OFFSET -29.972300 0.000000 0.000000
											CHANNELS 3 Xrotation Yrotation Zrotation
											JOINT RightHand
											{
												OFFSET -26.026505 0.000000 0.000000
												CHANNELS 3 Xrotation Yrotation Zrotation
												End Site
												{
													OFFSET 0 0 0
												}
											}
										}
									}
								}
							}
						}
					}
				}
			}
		}
	}
}
MOTION
Frames: 5
Frame Time: 0.03333333
1.211240 85.352959 -0.730316 0.000000 0.000000 0.000000 -6.107848 -43.249014 -4.102745 -29.877672 5.210741 13.319295 32.838054 -12.881502 0.309433 -0.267947 0.093050 -8.727585 -2.319088 -3.216978 0.802956 0.000000 0.000000 0.000000 -6.107848 -43.249014 -4.102745 1.358174 -13.669765 -18.978630 31.289704 -6.248386 0.666812 -23.451658 -6.999705 20.508102 -1.784983 -0.356733 0.333182 0.000000 0.000000 0.000000 -6.107848 -43.249014 -4.102745 5.829633 4.865986 -1.194341 11.836539 9.037612 -3.083968 0.000000 0.000000 0.000000 0.000000 0.000000 0.000000 11.836542 9.037612 -3.083969 -4.303059 -1.272943 0.206308 -6.271929 20.437797 -0.377164 0.000000 0.000000 0.000000 11.836542 9.037612 -3.083969 1.392466 -0.696061 -7.877844 0.000000 0.000000 0.000000 -14.260088 2.394338 -63.277106 9.865056 -47.524941 5.927911 0.000000 0.000000 0.000000 11.836542 9.037612 -3.083969 1.410922 9.461496 9.792747 0.000000 0.000000 0.000000 1.220040 -24.270684 60.532914 -6.660711 41.858408 8.043850 0.000000 0.000000 0.000000 
1.188853 85.265015 -0.720814 0.000000 0.000000 0.000000 -5.686013 -43.164258 -3.724478 -30.269974 5.069618 13.180914 33.003040 -12.750101 0.344368 -0.314580 0.090044 -8.808718 -2.306643 -3.273455 0.881120 0.000000 0.000000 0.000000 -5.686013 -43.164258 -3.724478 0.974338 -13.497706 -19.062343 31.798823 -6.950980 0.606311 -23.547646 -7.152081 20.669657 -1.879042 0.180762 0.762058 0.000000 0.000000 0.000000 -5.686013 -43.164258 -3.724478 5.730485 4.699584 -1.253428 11.629818 8.696615 -3.147944 0.000000 0.000000 0.000000 0.000000 0.000000 0.000000 11.629817 8.696628 -3.147947 -4.189976 -0.576359 0.043485 -6.017094 20.421166 -0.295643 0.000000 0.000000 0.000000 11.629817 8.696628 -3.147947 1.380125 -0.996769 -8.053120 0.000000 0.000000 0.000000 -14.173306 2.709393 -62.680912 9.587356 -47.246672 5.801172 0.000000 0.000000 0.000000 11.629817 8.696628 -3.147947 1.353089 9.120822 10.030862 0.000000 0.000000 0.000000 1.496271 -24.000612 60.284937 -5.499480 42.033121 7.478086 0.000000 0.000000 0.000000 
1.183533 85.205307 -0.692982 0.000000 0.000000 0.000000 -5.059122 -42.862797 -3.221115 -30.860106 4.853522 12.922910 33.103369 -12.789271 0.388204 -0.239934 0.074082 -8.861784 -2.303797 -3.282733 1.002576 0.000000 0.000000 0.000000 -5.059122 -42.862797 -3.221115 0.615853 -13.293851 -19.061062 32.260438 -7.957941 0.517802 -23.599354 -7.366110 20.938170 -2.021470 0.753885 1.245258 0.000000 0.000000 0.000000 -5.059122 -42.862797 -3.221115 5.628670 4.528262 -1.300664 11.417961 8.343466 -3.198494 0.000000 0.000000 0.000000 0.000000 0.000000 0.000000 11.417968 8.343441 -3.198489 -4.712098 0.239339 -0.274420 -5.628830 20.400713 -0.260408 0.000000 0.000000 0.000000 11.417968 8.343441 -3.198489 1.365564 -1.313358 -8.238631 0.000000 0.000000 0.000000 -14.177983 2.972068 -62.078210 9.495134 -46.935947 5.816235 0.000000 0.000000 0.000000 11.417968 8.343441 -3.198489 1.299693 8.823664 10.220373 0.000000 0.000000 0.000000 1.828186 -23.749592 60.051693 -4.197106 42.197800 6.777207 0.000000 0.000000 0.000000 
1.177989 85.135635 -0.655613 0.000000 0.000000 0.000000 -4.288263 -42.335312 -2.702586 -31.663254 4.517371 12.629126 33.251167 -12.890136 0.436324 -0.106049 0.045472 -8.846944 -2.300994 -3.291440 1.097021 0.000000 0.000000 0.000000 -4.288263 -42.335312 -2.702586 0.331320 -13.079630 -18.913262 32.694432 -9.233248 0.404670 -23.628206 -7.641383 21.340001 -2.157741 1.344006 1.863558 0.000000 0.000000 0.000000 -4.288263 -42.335312 -2.702586 5.538962 4.355344 -1.316494 11.230594 7.983835 -3.208965 0.000000 0.000000 0.000000 0.000000 0.000000 0.000000 11.230593 7.983849 -3.208964 -5.737462 1.166999 -0.702396 -5.153204 20.328183 -0.234434 0.000000 0.000000 0.000000 11.230593 7.983849 -3.208964 1.348199 -1.647993 -8.431664 0.000000 0.000000 0.000000 -14.236277 3.204025 -61.492255 9.570540 -46.641484 5.961944 0.000000 0.000000 0.000000 11.230593 7.983849 -3.208964 1.252400 8.568991 10.347233 0.000000 0.000000 0.000000 2.131718 -23.375301 59.828414 -2.736077 42.328694 5.976058 0.000000 0.000000 0.000000 
1.147017 85.046570 -0.636650 0.000000 0.000000 0.000000 -3.422936 -41.459535 -2.238075 -32.697454 4.066122 12.315052 33.506965 -12.786244 0.479296 0.044645 0.002841 -8.642677 -2.224744 -3.673392 1.209146 0.000000 0.000000 0.000000 -3.422936 -41.459535 -2.238075 0.222598 -12.845501 -18.515816 33.151833 -10.920308 0.254831 -23.686106 -7.987894 21.850883 -2.351982 1.933659 2.635042 0.000000 0.000000 0.000000 -3.422936 -41.459535 -2.238075 5.474400 4.187682 -1.302093 11.095128 7.627878 -3.192236 0.000000 0.000000 0.000000 0.000000 0.000000 0.000000 11.095127 7.627865 -3.192232 -7.173737 2.120070 -1.287962 -4.746114 20.086079 -0.144924 0.000000 0.000000 0.000000 11.095127 7.627865 -3.192232 1.326138 -2.019138 -8.612886 0.000000 0.000000 0.000000 -14.393336 3.225557 -60.788820 9.841993 -46.156281 6.121517 0.000000 0.000000 0.000000 11.095127 7.627865 -3.192232 1.211025 8.233969 10.448831 0.000000 0.000000 0.000000 2.261724 -22.732097 59.638077 -1.145715 42.342658 5.091084 0.000000 0.000000 0.000000 
